<svg xmlns="http://www.w3.org/2000/svg" xmlns:xlink="http://www.w3.org/1999/xlink" width="38.165" height="36.14" viewBox="0 0 38.165 36.14">
  <defs>
    <filter id="itchio-textless-white" x="0" y="0" width="38.165" height="36.14" filterUnits="userSpaceOnUse">
      <feOffset dy="3" input="SourceAlpha"/>
      <feGaussianBlur stdDeviation="3" result="blur"/>
      <feFlood flood-opacity="0.161"/>
      <feComposite operator="in" in2="blur"/>
      <feComposite in="SourceGraphic"/>
    </filter>
  </defs>
  <g transform="matrix(1, 0, 0, 1, 0, 0)" filter="url(#itchio-textless-white)">
    <path id="itchio-textless-white-2" data-name="itchio-textless-white" d="M2.629.112C1.749.634.016,2.625,0,3.147v.864A2.145,2.145,0,0,0,1.954,6.07,2.057,2.057,0,0,0,4,4.047,2.029,2.029,0,0,0,6.015,6.07,2,2,0,0,0,8,4.047,2.079,2.079,0,0,0,10.072,6.07h.02a2.079,2.079,0,0,0,2.072-2.023A2,2,0,0,0,14.15,6.07a2.029,2.029,0,0,0,2.015-2.023A2.057,2.057,0,0,0,18.211,6.07a2.145,2.145,0,0,0,1.954-2.058V3.147C20.149,2.625,18.416.634,17.536.112,14.8.016,12.907,0,10.082,0S3.407.044,2.629.112ZM7.987,5.554a2.3,2.3,0,0,1-.393.506,2.342,2.342,0,0,1-3.275,0,2.189,2.189,0,0,1-.375-.5h0a2.316,2.316,0,0,1-.407.5A2.342,2.342,0,0,1,1.9,6.727a.707.707,0,0,1-.221-.043c-.09.935-.128,1.828-.141,2.479v0c0,.331,0,.6,0,.98.017,1.961-.194,6.355.865,7.435a40.562,40.562,0,0,0,7.688.558h0a40.561,40.561,0,0,0,7.688-.558c1.059-1.08.847-5.474.865-7.435,0-.378,0-.65,0-.98v0c-.013-.651-.051-1.544-.141-2.479a.706.706,0,0,1-.221.043,2.342,2.342,0,0,1-1.639-.667,2.317,2.317,0,0,1-.407-.5h0a2.189,2.189,0,0,1-.375.5,2.342,2.342,0,0,1-3.275,0,2.3,2.3,0,0,1-.393-.506,2.3,2.3,0,0,1-.389.506,2.341,2.341,0,0,1-1.64.668l-.067,0h0l-.067,0a2.341,2.341,0,0,1-1.64-.668,2.3,2.3,0,0,1-.389-.506ZM6.3,7.731h0a2.25,2.25,0,0,1,1.993.8,16.988,16.988,0,0,1,1.785-.09h0a17.013,17.013,0,0,1,1.785.09,2.249,2.249,0,0,1,1.993-.8h0c.315,0,1.575,0,2.453,2.466l.943,3.383c.7,2.517-.224,2.578-1.375,2.58a2.585,2.585,0,0,1-2.652-2.542,20.039,20.039,0,0,1-3.149.232h0a20.027,20.027,0,0,1-3.149-.232A2.585,2.585,0,0,1,4.281,16.16c-1.151,0-2.073-.064-1.375-2.58L3.85,10.2C4.728,7.731,5.988,7.731,6.3,7.731Zm3.779,1.938h0a18.283,18.283,0,0,0-2.119,2.237l1.176-.047v1.025a3.509,3.509,0,0,0,.944.007h0a3.508,3.508,0,0,0,.944-.007V11.859l1.176.047a18.293,18.293,0,0,0-2.119-2.237h0Z" transform="translate(9 6)" fill="#fff"/>
  </g>
</svg>
