<svg xmlns="http://www.w3.org/2000/svg" width="32.374" height="26.309" viewBox="0 0 32.374 26.309">
  <path id="iconmonstr-twitter-1_5_" data-name="iconmonstr-twitter-1 (5)" d="M32.374,5.363a13.261,13.261,0,0,1-3.815,1.045,6.653,6.653,0,0,0,2.92-3.674,13.305,13.305,0,0,1-4.218,1.612A6.646,6.646,0,0,0,15.943,10.4,18.856,18.856,0,0,1,2.254,3.463a6.651,6.651,0,0,0,2.054,8.868A6.614,6.614,0,0,1,1.3,11.5a6.647,6.647,0,0,0,5.327,6.6,6.657,6.657,0,0,1-3,.113,6.647,6.647,0,0,0,6.205,4.612A13.355,13.355,0,0,1,0,25.574a18.8,18.8,0,0,0,10.182,2.984c12.332,0,19.3-10.415,18.878-19.756a13.523,13.523,0,0,0,3.314-3.438Z" transform="translate(0 -2.248)" fill="#1da1f2"/>
</svg>
