<svg id="Discord" xmlns="http://www.w3.org/2000/svg" width="32.382" height="37.008" viewBox="0 0 32.382 37.008">
  <rect id="Rectangle_35" data-name="Rectangle 35" width="26.184" height="21.876" transform="translate(3.314 5.303)" fill="#fff"/>
  <path id="iconmonstr-discord-1" d="M29.589,0a3.8,3.8,0,0,1,3.793,3.812v33.2L29.4,33.492,27.165,31.42l-2.368-2.2.981,3.423H4.793A3.8,3.8,0,0,1,1,28.829V3.812A3.8,3.8,0,0,1,4.793,0h24.8ZM22.446,24.166a6.764,6.764,0,0,0,5.662-2.813,24.78,24.78,0,0,0-2.665-10.788,9.15,9.15,0,0,0-5.2-1.943l-.259.3a12.315,12.315,0,0,1,4.607,2.35,15.084,15.084,0,0,0-5.57-1.776,15.657,15.657,0,0,0-3.738.037l-.315.037a13.9,13.9,0,0,0-4.2,1.166c-.685.315-1.092.537-1.092.537a12.483,12.483,0,0,1,4.867-2.424l-.185-.222a9.15,9.15,0,0,0-5.2,1.943A24.78,24.78,0,0,0,6.5,21.354a6.709,6.709,0,0,0,5.644,2.813s.685-.833,1.24-1.536a5.755,5.755,0,0,1-3.238-2.183l.518.315.074.056.072.042.022.009.072.042a10.844,10.844,0,0,0,1.351.629,15.533,15.533,0,0,0,2.72.8,12.962,12.962,0,0,0,4.793.019,12.179,12.179,0,0,0,2.683-.8,10.588,10.588,0,0,0,2.128-1.092,5.839,5.839,0,0,1-3.349,2.2c.555.7,1.221,1.5,1.221,1.5Zm-8.6-8.641a2.061,2.061,0,0,0,0,4.108,1.971,1.971,0,0,0,1.887-2.054A1.959,1.959,0,0,0,13.842,15.525Zm6.754,0a2.061,2.061,0,1,0,1.887,2.054A1.971,1.971,0,0,0,20.6,15.525Z" transform="translate(-1 0)" fill="#7289da" fill-rule="evenodd"/>
</svg>
