<svg xmlns="http://www.w3.org/2000/svg" width="11.893" height="13.592" viewBox="0 0 11.893 13.592">
  <path id="Discord" d="M11.5,0a1.4,1.4,0,0,1,1.393,1.4V13.592L11.432,12.3l-.822-.761-.87-.809.36,1.257H2.393A1.4,1.4,0,0,1,1,10.588V1.4A1.4,1.4,0,0,1,2.393,0H11.5ZM8.877,8.876a2.484,2.484,0,0,0,2.08-1.033,9.1,9.1,0,0,0-.979-3.962,3.361,3.361,0,0,0-1.91-.714l-.1.109a4.523,4.523,0,0,1,1.692.863,5.54,5.54,0,0,0-2.046-.652A5.75,5.75,0,0,0,6.247,3.5l-.116.014a5.1,5.1,0,0,0-1.543.428c-.251.116-.4.2-.4.2a4.585,4.585,0,0,1,1.787-.89l-.068-.082A3.361,3.361,0,0,0,4,3.881a9.1,9.1,0,0,0-.979,3.962A2.464,2.464,0,0,0,5.091,8.876s.251-.306.455-.564a2.114,2.114,0,0,1-1.189-.8l.19.116.027.02.027.015.008,0,.027.015a3.983,3.983,0,0,0,.5.231,5.7,5.7,0,0,0,1,.292,4.761,4.761,0,0,0,1.76.007,4.473,4.473,0,0,0,.985-.292,3.889,3.889,0,0,0,.782-.4,2.145,2.145,0,0,1-1.23.809c.2.258.449.55.449.55ZM5.717,5.7a.757.757,0,0,0,0,1.509.724.724,0,0,0,.693-.754A.72.72,0,0,0,5.717,5.7ZM8.2,5.7a.757.757,0,1,0,.693.754A.724.724,0,0,0,8.2,5.7Z" transform="translate(-1 0)" fill="#fff" fill-rule="evenodd"/>
</svg>
