<svg id="Twitch" xmlns="http://www.w3.org/2000/svg" width="32.374" height="33.891" viewBox="0 0 32.374 33.891">
  <path id="Path_4" data-name="Path 4" d="M0,0H27l-.89,19.347a12.527,12.527,0,0,1-5.146,5.242c-2.764,3.336-9.805,3.1-13.342,3.1C.871,27.686,0,26,0,26Z" transform="translate(4 1)" fill="#fff"/>
  <path id="iconmonstr-twitch-1" d="M2.813,0,.537,5.817V29.591H8.63v4.3h4.553l4.3-4.3h6.576l8.853-8.853V0H2.813ZM29.875,19.222,24.817,24.28H16.724l-4.3,4.3v-4.3H5.6V3.035h24.28ZM24.817,8.853V17.7H21.782V8.853h3.035Zm-8.093,0V17.7H13.689V8.853h3.035Z" transform="translate(-0.537)" fill="#9146ff" fill-rule="evenodd"/>
</svg>
