<svg xmlns="http://www.w3.org/2000/svg" width="13.592" height="11.046" viewBox="0 0 13.592 11.046">
  <path id="Twitter" d="M13.592,3.556a5.568,5.568,0,0,1-1.6.439,2.793,2.793,0,0,0,1.226-1.543,5.586,5.586,0,0,1-1.771.677A2.79,2.79,0,0,0,6.694,5.672,7.917,7.917,0,0,1,.946,2.758a2.792,2.792,0,0,0,.863,3.723A2.777,2.777,0,0,1,.547,6.133,2.791,2.791,0,0,0,2.783,8.9a2.8,2.8,0,0,1-1.26.048,2.791,2.791,0,0,0,2.605,1.936A5.607,5.607,0,0,1,0,12.041a7.894,7.894,0,0,0,4.275,1.253A7.887,7.887,0,0,0,12.2,5a5.677,5.677,0,0,0,1.392-1.444Z" transform="translate(0 -2.248)" fill="#fff"/>
</svg>
