<svg xmlns="http://www.w3.org/2000/svg" xmlns:xlink="http://www.w3.org/1999/xlink" width="39.439" height="39.439" viewBox="0 0 39.439 39.439">
  <defs>
    <clipPath id="clip-path">
      <rect id="Rectangle_67" data-name="Rectangle 67" width="39.439" height="39.439" fill="none"/>
    </clipPath>
  </defs>
  <g id="Group_79" data-name="Group 79" transform="translate(-142.375 0.298)">
    <path id="Path_13" data-name="Path 13" d="M19.02,0c10.515,0,19.04,8.22,19.04,18.36s-8.524,18.36-19.04,18.36A18.829,18.829,0,0,1,.058,18.307C-.114,8.218,8.5,0,19.02,0Z" transform="translate(142.649 1.062)" fill="#fff"/>
    <g id="Mask_Group_7" data-name="Mask Group 7" transform="translate(142.375 -0.298)" clip-path="url(#clip-path)">
      <path id="iconmonstr-steam-4_1_" data-name="iconmonstr-steam-4 (1)" d="M37.987,19.021a19.02,19.02,0,0,1-37.635,3.9L7.9,26.1a4.986,4.986,0,0,0,9.876-.943l.011,0L23.5,20.9a6.486,6.486,0,1,0-6.408-6.608l-4.185,5.854a4.916,4.916,0,0,0-2.839.808L.092,16.757a19.015,19.015,0,0,1,37.9,2.263ZM11.712,27.7,9.265,26.673a3.855,3.855,0,1,0,3.53-5.4,3.822,3.822,0,0,0-1.363.254l2.444,1.027a2.793,2.793,0,0,1-2.164,5.15Zm11.863-8.879a4.41,4.41,0,1,1,4.408-4.41,4.415,4.415,0,0,1-4.408,4.41Zm0-1.081a3.331,3.331,0,1,0-3.332-3.33,3.332,3.332,0,0,0,3.332,3.33Z" transform="translate(0.357 0.405)" fill="#171a21"/>
    </g>
  </g>
</svg>
