<svg xmlns="http://www.w3.org/2000/svg" width="42.287" height="38.041" viewBox="0 0 42.287 38.041">
  <g id="Group_78" data-name="Group 78" transform="translate(0 -0.107)">
    <path id="Path_12" data-name="Path 12" d="M285.664,241.853H313.81l1.967,18.579-32.378.574-1.165-11.776Z" transform="translate(-278.09 -226.031)" fill="#fff"/>
    <path id="itchio-textless-black" d="M5.513.235C3.669,1.33.034,5.505,0,6.6V8.413a4.5,4.5,0,0,0,4.1,4.316A4.313,4.313,0,0,0,8.389,8.486a4.255,4.255,0,0,0,4.225,4.243,4.2,4.2,0,0,0,4.165-4.243,4.359,4.359,0,0,0,4.344,4.243h.042a4.359,4.359,0,0,0,4.344-4.243,4.2,4.2,0,0,0,4.164,4.243A4.255,4.255,0,0,0,33.9,8.486a4.313,4.313,0,0,0,4.292,4.243,4.5,4.5,0,0,0,4.1-4.316V6.6c-.034-1.1-3.669-5.27-5.513-6.365C31.041.034,27.067,0,21.143,0S7.145.093,5.513.235ZM16.749,11.647a4.83,4.83,0,0,1-.824,1.061,4.912,4.912,0,0,1-6.868,0,4.59,4.59,0,0,1-.786-1.04h0a4.857,4.857,0,0,1-.854,1.04,4.912,4.912,0,0,1-3.438,1.4,1.482,1.482,0,0,1-.464-.091c-.188,1.96-.268,3.833-.3,5.2v.008c0,.693-.007,1.264-.01,2.056C3.243,25.391,2.8,34.607,5.02,36.871c3.441.8,9.772,1.168,16.123,1.17h0c6.351,0,12.682-.368,16.123-1.17,2.22-2.265,1.777-11.48,1.813-15.592,0-.792-.007-1.362-.01-2.056v-.008c-.028-1.366-.107-3.239-.3-5.2a1.481,1.481,0,0,1-.464.091,4.912,4.912,0,0,1-3.438-1.4,4.859,4.859,0,0,1-.854-1.04h0a4.591,4.591,0,0,1-.786,1.04,4.912,4.912,0,0,1-6.868,0,4.83,4.83,0,0,1-.824-1.061,4.824,4.824,0,0,1-.816,1.061,4.91,4.91,0,0,1-3.438,1.4c-.047,0-.093,0-.14,0h0c-.047,0-.093,0-.14,0a4.91,4.91,0,0,1-3.438-1.4,4.824,4.824,0,0,1-.816-1.061Zm-3.531,4.565v0h0a4.718,4.718,0,0,1,4.179,1.68,35.624,35.624,0,0,1,3.744-.189h0a35.677,35.677,0,0,1,3.744.189,4.717,4.717,0,0,1,4.179-1.68h0v0c.661,0,3.3,0,5.144,5.171l1.978,7.094c1.466,5.278-.469,5.407-2.883,5.411a5.421,5.421,0,0,1-5.561-5.331,42.023,42.023,0,0,1-6.6.487h0a42,42,0,0,1-6.6-.487,5.422,5.422,0,0,1-5.561,5.331c-2.413,0-4.348-.134-2.883-5.411l1.978-7.094c1.841-5.171,4.484-5.171,5.144-5.171Zm7.925,4.064h0s-3.768,3.461-4.445,4.69l2.465-.1v2.15a7.358,7.358,0,0,0,1.979.014h0a7.357,7.357,0,0,0,1.979-.014v-2.15l2.465.1c-.677-1.23-4.445-4.69-4.445-4.69h0Z" transform="translate(0 0.107)" fill="#fa5c5c"/>
  </g>
</svg>
