<svg id="badge-color" xmlns="http://www.w3.org/2000/svg" width="175.683" height="54.057" viewBox="0 0 175.683 54.057">
  <path id="Path_9" data-name="Path 9" d="M170.256,0H5.427A5.427,5.427,0,0,0,0,5.427v43.2a5.427,5.427,0,0,0,5.427,5.427h164.83a5.427,5.427,0,0,0,5.427-5.427V5.427A5.427,5.427,0,0,0,170.256,0Z" fill="#ff2449"/>
  <path id="Path_10" data-name="Path 10" d="M50.072,27.622c-1.876,1.113-5.568,5.355-5.6,6.468v1.842a4.571,4.571,0,0,0,4.163,4.387,4.383,4.383,0,0,0,4.361-4.312,4.325,4.325,0,0,0,4.294,4.312,4.272,4.272,0,0,0,4.232-4.312,4.431,4.431,0,0,0,4.415,4.312h.043a4.43,4.43,0,0,0,4.415-4.312,4.273,4.273,0,0,0,4.233,4.312,4.324,4.324,0,0,0,4.294-4.312,4.384,4.384,0,0,0,4.362,4.312,4.571,4.571,0,0,0,4.163-4.388V34.089c-.035-1.113-3.728-5.355-5.6-6.468-5.826-.2-9.865-.24-15.885-.24s-14.227.094-15.885.24h0Zm11.418,11.6a4.91,4.91,0,0,1-.837,1.079,4.992,4.992,0,0,1-6.98,0,4.664,4.664,0,0,1-.8-1.057h0a5.257,5.257,0,0,1-4.362,2.479,1.508,1.508,0,0,1-.471-.093q-.247,2.635-.3,5.284v.008l-.011,2.09c.036,4.179-.414,13.544,1.842,15.845,3.5.815,9.93,1.186,16.385,1.189h0c6.454,0,12.889-.374,16.385-1.189,2.257-2.3,1.806-11.667,1.843-15.846l-.011-2.089v-.009q-.053-2.646-.3-5.282a1.5,1.5,0,0,1-.471.093,5.262,5.262,0,0,1-4.362-2.48h0a4.662,4.662,0,0,1-.8,1.055,4.992,4.992,0,0,1-6.98,0,4.91,4.91,0,0,1-.837-1.079,4.9,4.9,0,0,1-.829,1.079A4.989,4.989,0,0,1,66.1,41.719l-.142,0h0c-.047,0-.094,0-.142,0A4.989,4.989,0,0,1,62.32,40.3a4.9,4.9,0,0,1-.83-1.078ZM57.9,43.857v0h0a4.793,4.793,0,0,1,4.247,1.707,37.963,37.963,0,0,1,7.609,0,4.794,4.794,0,0,1,4.248-1.707h0v0c.671,0,3.356,0,5.228,5.255l2.01,7.21c1.49,5.363-.477,5.494-2.93,5.5A5.51,5.51,0,0,1,72.668,56.4a45.707,45.707,0,0,1-13.423,0,5.51,5.51,0,0,1-5.651,5.419c-2.452-.005-4.418-.137-2.929-5.5l2.01-7.209c1.872-5.256,4.557-5.255,5.228-5.255Zm8.054,4.131s-3.83,3.517-4.517,4.767l2.505-.1V54.84a7.482,7.482,0,0,0,2.012.013,7.492,7.492,0,0,0,2.013-.013V52.655l2.505.1c-.688-1.249-4.517-4.767-4.517-4.767Zm36.019,16.8V47.3h5.9V64.784Zm2.985-18.906a3.307,3.307,0,0,1-2.31-.746,2.623,2.623,0,0,1-.782-1.99,2.773,2.773,0,0,1,.782-1.99,3.127,3.127,0,0,1,2.31-.816,3,3,0,0,1,2.275.817,2.707,2.707,0,0,1,.817,1.99,2.566,2.566,0,0,1-.817,1.99A3.173,3.173,0,0,1,104.96,45.878Zm11.716,19.261a5.172,5.172,0,0,1-3.875-1.35,5.444,5.444,0,0,1-1.278-3.838v-8.28h-2.346V47.3h2.346V43.035h5.9V47.3h3.839v4.37h-3.839V59.1a1.737,1.737,0,0,0,.319,1.173,1.548,1.548,0,0,0,1.066.32,3.592,3.592,0,0,0,2.1-.853l1.35,3.874a8.929,8.929,0,0,1-2.345,1.137,11.457,11.457,0,0,1-3.233.392Zm14.509,0a8.72,8.72,0,0,1-6.4-2.31q-2.31-2.309-2.31-6.716a10.178,10.178,0,0,1,1.315-5.366,6.851,6.851,0,0,1,3.377-3.021,11.082,11.082,0,0,1,3.946-.817,7.234,7.234,0,0,1,3.8.924,6.616,6.616,0,0,1,2.239,1.954,16.957,16.957,0,0,1,1.066,1.67l-4.086,2.63a6.736,6.736,0,0,0-1.244-1.848,2.224,2.224,0,0,0-1.633-.675,2.5,2.5,0,0,0-2.132,1.066,5.468,5.468,0,0,0-.782,3.234,5.306,5.306,0,0,0,.924,3.447,3.237,3.237,0,0,0,2.629,1.1,4.531,4.531,0,0,0,2.239-.5,8.085,8.085,0,0,0,1.742-1.28l1.884,4.406a10.413,10.413,0,0,1-2.524,1.422,10.835,10.835,0,0,1-4.051.674Zm8.583-.355V41.045H145.7v7.214a7.616,7.616,0,0,1,1.813-.924,6.886,6.886,0,0,1,2.558-.426,5.808,5.808,0,0,1,4.655,1.777,7.344,7.344,0,0,1,1.564,5.012V64.786h-5.935V54.407a3.353,3.353,0,0,0-.568-2.168,1.818,1.818,0,0,0-1.492-.71,3.08,3.08,0,0,0-1.458.356,6.3,6.3,0,0,0-1.137.747V64.787h-5.935Zm21.081.355a3.027,3.027,0,0,1-2.239-.817,2.84,2.84,0,0,1-.816-2.1,2.865,2.865,0,0,1,3.055-2.985,2.864,2.864,0,0,1,2.168.853,2.956,2.956,0,0,1,.818,2.132,2.8,2.8,0,0,1-2.984,2.914h0Zm4.364-.355V47.3h5.9V64.784Zm2.984-18.9a3.3,3.3,0,0,1-2.31-.746,2.621,2.621,0,0,1-.782-1.99,2.774,2.774,0,0,1,.781-1.99,3.126,3.126,0,0,1,2.31-.818,3,3,0,0,1,2.275.817,2.713,2.713,0,0,1,.816,1.991,2.563,2.563,0,0,1-.816,1.99,3.169,3.169,0,0,1-2.275.746ZM181.53,65.139a9.351,9.351,0,0,1-3.661-.675,8.381,8.381,0,0,1-2.736-1.919,8.92,8.92,0,0,1-1.7-2.914,11.6,11.6,0,0,1-.57-3.7,10.077,10.077,0,0,1,1.279-5.152,7.237,7.237,0,0,1,3.27-3.02,10.359,10.359,0,0,1,4.122-.853,8.466,8.466,0,0,1,5.044,1.421,7.647,7.647,0,0,1,2.844,3.553,11.34,11.34,0,0,1,.817,4.052,10.99,10.99,0,0,1-.6,3.7,8.152,8.152,0,0,1-1.706,2.914,7.925,7.925,0,0,1-2.737,1.92,9.33,9.33,0,0,1-3.661.676Zm0-4.549a2.288,2.288,0,0,0,2.168-1.243,7.339,7.339,0,0,0,.675-3.412,6.352,6.352,0,0,0-.711-3.234,2.316,2.316,0,0,0-2.132-1.209,2.287,2.287,0,0,0-2.1,1.209,6.36,6.36,0,0,0-.71,3.234,7.326,7.326,0,0,0,.676,3.411,2.308,2.308,0,0,0,2.132,1.245ZM116.944,32.565a8.327,8.327,0,0,0-1.16.123,3.023,3.023,0,0,0-.754.219.991.991,0,0,0-.406.316.685.685,0,0,0-.122.393.7.7,0,0,0,.245.6,1.09,1.09,0,0,0,.651.18,1.9,1.9,0,0,0,.844-.174,2.553,2.553,0,0,0,.7-.541V32.565ZM113.3,29.7a3.923,3.923,0,0,1,2.745-1.044,2.641,2.641,0,0,1,1.037.193,2.138,2.138,0,0,1,.773.528,2.19,2.19,0,0,1,.477.806,3.049,3.049,0,0,1,.168,1.031v4.175h-.722a.757.757,0,0,1-.348-.065.485.485,0,0,1-.193-.277l-.142-.477a6.266,6.266,0,0,1-.49.4,3.029,3.029,0,0,1-.5.284,2.529,2.529,0,0,1-.554.174,2.974,2.974,0,0,1-.644.065,2.6,2.6,0,0,1-.773-.11,1.735,1.735,0,0,1-.612-.341,1.518,1.518,0,0,1-.4-.561,1.989,1.989,0,0,1-.142-.78,1.518,1.518,0,0,1,.084-.5,1.482,1.482,0,0,1,.27-.477,2.363,2.363,0,0,1,.5-.425,3.22,3.22,0,0,1,.741-.348,6.341,6.341,0,0,1,1.031-.239,9.871,9.871,0,0,1,1.34-.116v-.387a1.434,1.434,0,0,0-.283-.979,1.032,1.032,0,0,0-.818-.322,1.975,1.975,0,0,0-.644.09,2.521,2.521,0,0,0-.445.206l-.354.2a.679.679,0,0,1-.348.09.472.472,0,0,1-.283-.084.768.768,0,0,1-.187-.206Zm12.508-.921-2.623,6.611h-1.443l-2.622-6.611h1.314a.5.5,0,0,1,.3.084.389.389,0,0,1,.161.213l1.276,3.531a9.407,9.407,0,0,1,.316,1.2q.065-.3.142-.593t.187-.606l1.3-3.531a.435.435,0,0,1,.161-.213.461.461,0,0,1,.277-.084H125.8Zm4.177,3.789a8.328,8.328,0,0,0-1.16.123,3.017,3.017,0,0,0-.754.219.993.993,0,0,0-.406.316.685.685,0,0,0-.122.393.7.7,0,0,0,.245.6,1.089,1.089,0,0,0,.651.18,1.9,1.9,0,0,0,.844-.174,2.552,2.552,0,0,0,.7-.541V32.565ZM126.335,29.7a3.923,3.923,0,0,1,2.745-1.044,2.641,2.641,0,0,1,1.037.193,2.136,2.136,0,0,1,.773.528,2.194,2.194,0,0,1,.477.806,3.055,3.055,0,0,1,.167,1.031v4.175h-.721a.757.757,0,0,1-.348-.065.485.485,0,0,1-.193-.277l-.142-.477q-.235.212-.49.4a3,3,0,0,1-.5.284,2.528,2.528,0,0,1-.554.174,2.974,2.974,0,0,1-.644.065,2.6,2.6,0,0,1-.773-.11,1.737,1.737,0,0,1-.612-.341,1.518,1.518,0,0,1-.4-.561,1.989,1.989,0,0,1-.142-.78,1.524,1.524,0,0,1,.084-.5,1.478,1.478,0,0,1,.271-.477,2.357,2.357,0,0,1,.5-.425,3.21,3.21,0,0,1,.741-.348,6.339,6.339,0,0,1,1.031-.239,9.874,9.874,0,0,1,1.34-.116v-.387a1.434,1.434,0,0,0-.283-.979,1.032,1.032,0,0,0-.818-.322,1.975,1.975,0,0,0-.644.09,2.518,2.518,0,0,0-.444.206l-.354.2a.679.679,0,0,1-.348.09.472.472,0,0,1-.283-.084.768.768,0,0,1-.187-.206l-.283-.509Zm8.348-.921v6.611h-1.6V28.776h1.6Zm.219-1.927a.908.908,0,0,1-.084.387,1.036,1.036,0,0,1-.226.316,1.066,1.066,0,0,1-.322.219,1.035,1.035,0,0,1-.4.077,1.017,1.017,0,0,1-.393-.077,1.079,1.079,0,0,1-.535-.535.972.972,0,0,1-.077-.387,1.033,1.033,0,0,1,.077-.4,1.067,1.067,0,0,1,.219-.322,1,1,0,0,1,.316-.213.949.949,0,0,1,.393-.084.966.966,0,0,1,.4.084.978.978,0,0,1,.322.213,1.012,1.012,0,0,1,.226.322A.966.966,0,0,1,134.9,26.849Zm3.014-1.037v9.575h-1.591V25.812h1.591Zm5.078,6.753a8.331,8.331,0,0,0-1.16.123,3.021,3.021,0,0,0-.754.219.993.993,0,0,0-.406.316.686.686,0,0,0-.122.393.7.7,0,0,0,.245.6,1.089,1.089,0,0,0,.651.18,1.9,1.9,0,0,0,.844-.174,2.55,2.55,0,0,0,.7-.541V32.565ZM139.348,29.7a3.924,3.924,0,0,1,2.745-1.044,2.643,2.643,0,0,1,1.037.193,2.137,2.137,0,0,1,.773.528,2.191,2.191,0,0,1,.477.806,3.055,3.055,0,0,1,.168,1.031v4.175h-.722a.758.758,0,0,1-.348-.065.485.485,0,0,1-.193-.277l-.142-.477a6.262,6.262,0,0,1-.49.4,3,3,0,0,1-.5.284,2.52,2.52,0,0,1-.554.174,2.974,2.974,0,0,1-.644.065,2.606,2.606,0,0,1-.773-.11,1.737,1.737,0,0,1-.612-.341,1.518,1.518,0,0,1-.4-.561,1.989,1.989,0,0,1-.142-.78,1.524,1.524,0,0,1,.084-.5,1.478,1.478,0,0,1,.271-.477,2.355,2.355,0,0,1,.5-.425,3.214,3.214,0,0,1,.741-.348,6.339,6.339,0,0,1,1.031-.239,9.878,9.878,0,0,1,1.34-.116v-.387a1.433,1.433,0,0,0-.284-.979,1.032,1.032,0,0,0-.818-.322,1.973,1.973,0,0,0-.644.09,2.52,2.52,0,0,0-.445.206l-.354.2a.678.678,0,0,1-.348.09.472.472,0,0,1-.284-.084.771.771,0,0,1-.187-.206l-.283-.509Zm8.29,3.976a1.573,1.573,0,0,0,.586.464,1.728,1.728,0,0,0,.676.135,1.6,1.6,0,0,0,.657-.129,1.288,1.288,0,0,0,.5-.412,2.073,2.073,0,0,0,.316-.715,4.356,4.356,0,0,0,.109-1.044,2.668,2.668,0,0,0-.361-1.572,1.21,1.21,0,0,0-1.038-.49,1.481,1.481,0,0,0-.8.213,2.552,2.552,0,0,0-.651.586Zm0-4.085a3.241,3.241,0,0,1,.883-.664,2.4,2.4,0,0,1,1.115-.251,2.3,2.3,0,0,1,1.031.226,2.162,2.162,0,0,1,.786.651,2.974,2.974,0,0,1,.5,1.018,4.824,4.824,0,0,1,.174,1.347,5.016,5.016,0,0,1-.2,1.462,3.358,3.358,0,0,1-.573,1.128,2.542,2.542,0,0,1-2.049.98,2.247,2.247,0,0,1-.561-.065,1.98,1.98,0,0,1-.857-.432,3.8,3.8,0,0,1-.335-.354l-.071.445a.391.391,0,0,1-.135.238.4.4,0,0,1-.251.071h-1.05V25.812h1.592Zm7.331-3.776v9.575h-1.591V25.812Zm5.845,5.509a1.824,1.824,0,0,0-.09-.58,1.347,1.347,0,0,0-.258-.483,1.174,1.174,0,0,0-.445-.322,1.457,1.457,0,0,0-.618-.123,1.486,1.486,0,0,0-1.089.393,1.94,1.94,0,0,0-.5,1.115Zm-3.035.96a3.174,3.174,0,0,0,.18.883,1.844,1.844,0,0,0,.374.612,1.525,1.525,0,0,0,.548.361,2.078,2.078,0,0,0,.709.116,2.158,2.158,0,0,0,.664-.09,2.966,2.966,0,0,0,.49-.2q.186-.095.367-.2a.632.632,0,0,1,.309-.09.329.329,0,0,1,.3.148l.458.58a2.723,2.723,0,0,1-.593.522,3.525,3.525,0,0,1-.689.335,3.823,3.823,0,0,1-.728.174,5.14,5.14,0,0,1-.715.052,3.577,3.577,0,0,1-1.282-.226,2.929,2.929,0,0,1-1.031-.677,3.218,3.218,0,0,1-.689-1.108,4.319,4.319,0,0,1-.251-1.534,3.632,3.632,0,0,1,.219-1.269,3.047,3.047,0,0,1,.625-1.037,2.979,2.979,0,0,1,1-.7,3.312,3.312,0,0,1,1.334-.258,3.236,3.236,0,0,1,1.153.2,2.493,2.493,0,0,1,.909.586,2.626,2.626,0,0,1,.593.941,3.433,3.433,0,0,1,.219,1.269,1.055,1.055,0,0,1-.077.49.323.323,0,0,1-.3.123h-4.092ZM169.5,28.673a3.583,3.583,0,0,1,1.334.238,2.9,2.9,0,0,1,1.031.677,2.952,2.952,0,0,1,.664,1.07,4.428,4.428,0,0,1,0,2.829,3.018,3.018,0,0,1-.664,1.076,2.85,2.85,0,0,1-1.031.683,3.578,3.578,0,0,1-1.334.239,3.646,3.646,0,0,1-1.347-.239,2.913,2.913,0,0,1-1.037-.683,3.139,3.139,0,0,1-.664-1.076,4.428,4.428,0,0,1,0-2.829,3.068,3.068,0,0,1,.664-1.07,2.96,2.96,0,0,1,1.037-.677A3.646,3.646,0,0,1,169.5,28.673Zm0,5.587a1.392,1.392,0,0,0,1.218-.554,2.761,2.761,0,0,0,.4-1.624,2.792,2.792,0,0,0-.4-1.63,1.385,1.385,0,0,0-1.218-.561,1.427,1.427,0,0,0-1.244.567,2.781,2.781,0,0,0-.4,1.624,2.781,2.781,0,0,0,.4,1.624A1.44,1.44,0,0,0,169.5,34.26Zm5.963-4.672a4.191,4.191,0,0,1,.419-.367,2.567,2.567,0,0,1,.47-.29,2.46,2.46,0,0,1,.535-.187,2.549,2.549,0,0,1,.619-.071,2.333,2.333,0,0,1,.96.187,1.824,1.824,0,0,1,.7.515,2.164,2.164,0,0,1,.425.793,3.263,3.263,0,0,1,.148,1.011v4.208h-1.592V31.179a1.41,1.41,0,0,0-.277-.934,1.033,1.033,0,0,0-.844-.335,1.656,1.656,0,0,0-.773.187,2.771,2.771,0,0,0-.683.509v4.781h-1.592V28.776h.973a.391.391,0,0,1,.406.29l.109.522Z" transform="translate(-33.912 -19.684)" fill="#fff"/>
</svg>
